<svg width="512" height="512" viewBox="0 0 512 512" xmlns="http://www.w3.org/2000/svg">
  <!-- Background -->
  <rect width="512" height="512" fill="#f8f9fa"/>
  
  <!-- Wiring diagram background -->
  <defs>
    <pattern id="grid" width="40" height="40" patternUnits="userSpaceOnUse">
      <path d="M 40 0 L 0 0 0 40" fill="none" stroke="#e0e0e0" stroke-width="1"/>
    </pattern>
  </defs>
  
  <!-- Grid background -->
  <rect width="512" height="512" fill="url(#grid)"/>
  
  <!-- Circuit paths -->
  <g stroke="#c0c0c0" stroke-width="2" fill="none">
    <!-- Horizontal lines -->
    <line x1="50" y1="120" x2="200" y2="120"/>
    <line x1="220" y1="120" x2="400" y2="120"/>
    <line x1="50" y1="200" x2="150" y2="200"/>
    <line x1="170" y1="200" x2="350" y2="200"/>
    <line x1="370" y1="200" x2="460" y2="200"/>
    <line x1="80" y1="280" x2="180" y2="280"/>
    <line x1="200" y1="280" x2="380" y2="280"/>
    <line x1="100" y1="360" x2="250" y2="360"/>
    <line x1="270" y1="360" x2="420" y2="360"/>
    <line x1="60" y1="440" x2="190" y2="440"/>
    <line x1="210" y1="440" x2="380" y2="440"/>
    
    <!-- Vertical lines -->
    <line x1="120" y1="80" x2="120" y2="160"/>
    <line x1="200" y1="100" x2="200" y2="240"/>
    <line x1="280" y1="60" x2="280" y2="180"/>
    <line x1="360" y1="140" x2="360" y2="300"/>
    <line x1="160" y1="320" x2="160" y2="460"/>
    <line x1="320" y1="240" x2="320" y2="400"/>
    <line x1="240" y1="380" x2="240" y2="480"/>
  </g>
  
  <!-- Circuit nodes/junctions -->
  <g fill="#a0a0a0">
    <circle cx="200" cy="120" r="4"/>
    <circle cx="150" cy="200" r="4"/>
    <circle cx="350" cy="200" r="4"/>
    <circle cx="180" cy="280" r="4"/>
    <circle cx="380" cy="280" r="4"/>
    <circle cx="250" cy="360" r="4"/>
    <circle cx="190" cy="440" r="4"/>
    <circle cx="120" cy="120" r="4"/>
    <circle cx="200" cy="200" r="4"/>
    <circle cx="280" cy="120" r="4"/>
    <circle cx="360" cy="200" r="4"/>
    <circle cx="160" cy="360" r="4"/>
    <circle cx="320" cy="280" r="4"/>
  </g>
  
  <!-- Resistor symbols -->
  <g stroke="#888" stroke-width="2" fill="none">
    <rect x="145" y="195" width="10" height="10" rx="1"/>
    <rect x="195" y="275" width="10" height="10" rx="1"/>
    <rect x="265" y="355" width="10" height="10" rx="1"/>
    <rect x="185" y="435" width="10" height="10" rx="1"/>
  </g>
  
  <!-- Main Letter B -->
  <g>
    <!-- Letter B in light purple -->
    <path d="M 160 140 
             L 160 372 
             L 280 372 
             C 320 372 340 352 340 312 
             C 340 292 330 278 310 272 
             C 325 266 335 252 335 230 
             C 335 190 315 140 275 140 
             Z
             
             M 200 180 
             L 260 180 
             C 285 180 295 190 295 210 
             C 295 230 285 240 260 240 
             L 200 240 
             Z
             
             M 200 272 
             L 270 272 
             C 295 272 300 282 300 302 
             C 300 322 295 332 270 332 
             L 200 332 
             Z" 
          fill="#b19cd9" 
          stroke="#9d7bc7" 
          stroke-width="3"/>
  </g>
  
  <!-- Additional circuit elements for visual interest -->
  <g stroke="#b0b0b0" stroke-width="1.5" fill="none">
    <!-- Capacitor symbols -->
    <g transform="translate(380,160)">
      <line x1="-5" y1="-8" x2="-5" y2="8"/>
      <line x1="5" y1="-8" x2="5" y2="8"/>
    </g>
    <g transform="translate(140,320)">
      <line x1="-5" y1="-8" x2="-5" y2="8"/>
      <line x1="5" y1="-8" x2="5" y2="8"/>
    </g>
    
    <!-- Inductor symbols -->
    <g transform="translate(300,380)">
      <path d="M -10 0 Q -5 -5 0 0 Q 5 5 10 0"/>
    </g>
  </g>
</svg>